# xmcd
#
# Track frame offsets:
#	150
#	22532
#	35036
#	48402
#	65064
#	80650
#	104312
#	125907
#	149051
#	161224
#	176447
#	186649
#	198179
#	208457
#	229768
#	251284
#	264652
#	279572
#	293156
#	310290
#
# Disc length: 4271 seconds
#
# Revision: 2
# Processed by: cddbd v1.5.2PL0 Copyright (c) Steve Scherf et al.
# Submitted via: audiograbber 1.83.01
#
DISCID=3c10ad14
DTITLE=Various Artist - Country meets Southern Rock - CD2
DYEAR=2009
DGENRE=Country
TTITLE0=The Rock Heroes - All Summer Long (Cover Version)
TTITLE1=Johnny Paycheck - Take This Job And Shove It
TTITLE2=Uncle Daddy - Southern Man
TTITLE3=Rick Derringer - Rock N' Roll Hoochie Coochie  (Re-Recorded Version)
TTITLE4=Ferlin Husky - Phantom 309
TTITLE5=Molly Hatchet - Flirtin' With Disaster (Re-Recorded Version)
TTITLE6=Blackfoot - Train, Train
TTITLE7=Atlanta Rhythm Section - Call Me The Breeze (Re-Recorded Version)
TTITLE8=Moe Bnady - Just Good Old Boys
TTITLE9=Kenny Rogers - Just Dropped In To See What Condition My Condition Was I
TTITLE9=n
TTITLE10=Waylon Jennings - White Lightnin'
TTITLE11=Merle Haggard - Okie From Muskogee
TTITLE12=Faron Young - Hello Walls
TTITLE13=Walter Trout - Gimme Three Steps
TTITLE14=Atlanta Rhythm Section - Takin' Care Of Business (Re-Recorded Version)
TTITLE15=Rickey Medlocke - Seasons
TTITLE16=Canned Heat - On The Road Again
TTITLE17=Lynn Anderson - Rose Garden
TTITLE18=Charlie Dore - Pilot Of The Airwaves
TTITLE19=Dave Dudley - Six Days On The Road
EXTD=
EXTT0=
EXTT1=
EXTT2=
EXTT3=
EXTT4=
EXTT5=
EXTT6=
EXTT7=
EXTT8=
EXTT9=
EXTT10=
EXTT11=
EXTT12=
EXTT13=
EXTT14=
EXTT15=
EXTT16=
EXTT17=
EXTT18=
EXTT19=
PLAYORDER=
